<svg width="32" height="32" viewBox="0 0 32 32" fill="none" xmlns="http://www.w3.org/2000/svg">
<path d="M23.8516 14.5289C25.7116 14.2676 27.1436 12.6729 27.1476 10.7409C27.1476 8.83693 25.7596 7.25826 23.9396 6.95959" stroke="white" stroke-width="1.5" stroke-linecap="round" stroke-linejoin="round"/>
<path d="M26.3047 19.0004C28.106 19.2697 29.3634 19.9004 29.3634 21.2004C29.3634 22.095 28.7714 22.6764 27.814 23.0417" stroke="white" stroke-width="1.5" stroke-linecap="round" stroke-linejoin="round"/>
<path fill-rule="evenodd" clip-rule="evenodd" d="M15.8496 19.5518C11.5643 19.5518 7.9043 20.2011 7.9043 22.7944C7.9043 25.3864 11.5416 26.0544 15.8496 26.0544C20.135 26.0544 23.7936 25.4118 23.7936 22.8171C23.7936 20.2224 20.1576 19.5518 15.8496 19.5518Z" stroke="white" stroke-width="1.5" stroke-linecap="round" stroke-linejoin="round"/>
<path fill-rule="evenodd" clip-rule="evenodd" d="M15.8499 15.8505C18.6619 15.8505 20.9419 13.5718 20.9419 10.7585C20.9419 7.9465 18.6619 5.6665 15.8499 5.6665C13.0379 5.6665 10.7579 7.9465 10.7579 10.7585C10.7472 13.5612 13.0099 15.8412 15.8125 15.8505H15.8499Z" stroke="white" stroke-width="1.5" stroke-linecap="round" stroke-linejoin="round"/>
<path d="M7.84678 14.5289C5.98545 14.2676 4.55478 12.6729 4.55078 10.7409C4.55078 8.83693 5.93878 7.25826 7.75878 6.95959" stroke="white" stroke-width="1.5" stroke-linecap="round" stroke-linejoin="round"/>
<path d="M5.39265 19.0004C3.59132 19.2697 2.33398 19.9004 2.33398 21.2004C2.33398 22.095 2.92598 22.6764 3.88332 23.0417" stroke="white" stroke-width="1.5" stroke-linecap="round" stroke-linejoin="round"/>
</svg>
