<svg width="32" height="32" viewBox="0 0 32 32" fill="none" xmlns="http://www.w3.org/2000/svg">
<path fill-rule="evenodd" clip-rule="evenodd" d="M23.0369 18.519C23.9366 18.519 24.6917 19.2614 24.5541 20.1499C23.7471 25.3765 19.2727 29.2572 13.8762 29.2572C7.9057 29.2572 3.06641 24.4179 3.06641 18.4488C3.06641 13.5309 6.80255 8.94986 11.0089 7.91407C11.9127 7.69091 12.839 8.3267 12.839 9.25723C12.839 15.5618 13.051 17.1927 14.2482 18.0797C15.4454 18.9667 16.8531 18.519 23.0369 18.519Z" stroke="white" stroke-width="1.5" stroke-linecap="round" stroke-linejoin="round"/>
<path fill-rule="evenodd" clip-rule="evenodd" d="M28.9229 13.2688C28.9944 9.21832 24.019 2.6892 17.9558 2.80148C17.4843 2.8099 17.1067 3.20288 17.0857 3.67306C16.9327 7.00358 17.139 11.3194 17.2541 13.2759C17.2892 13.885 17.7678 14.3636 18.3755 14.3987C20.3867 14.5138 24.8597 14.671 28.1425 14.1741C28.5888 14.1067 28.9158 13.7194 28.9229 13.2688Z" stroke="white" stroke-width="1.5" stroke-linecap="round" stroke-linejoin="round"/>
</svg>
