<svg width="32" height="32" viewBox="0 0 32 32" fill="none" xmlns="http://www.w3.org/2000/svg">
<path d="M15.9928 22.2357V18.853" stroke="white" stroke-width="1.5" stroke-linecap="round" stroke-linejoin="round"/>
<path fill-rule="evenodd" clip-rule="evenodd" d="M24.2527 7.10693C26.506 7.10693 28.3193 8.9336 28.3193 11.1869V15.7736C25.0393 17.6936 20.706 18.8536 15.986 18.8536C11.266 18.8536 6.94602 17.6936 3.66602 15.7736V11.1736C3.66602 8.92027 5.49268 7.10693 7.74602 7.10693H24.2527Z" stroke="white" stroke-width="1.5" stroke-linecap="round" stroke-linejoin="round"/>
<path d="M20.6595 7.10105V6.61305C20.6595 4.98638 19.3395 3.66638 17.7128 3.66638H14.2728C12.6462 3.66638 11.3262 4.98638 11.3262 6.61305V7.10105" stroke="white" stroke-width="1.5" stroke-linecap="round" stroke-linejoin="round"/>
<path d="M3.69922 20.644L3.95122 23.9893C4.12189 26.244 6.00055 27.9866 8.26055 27.9866H23.7259C25.9859 27.9866 27.8646 26.244 28.0352 23.9893L28.2872 20.644" stroke="white" stroke-width="1.5" stroke-linecap="round" stroke-linejoin="round"/>
</svg>
